<svg viewBox="0 0 91 91" xml:space="preserve" xmlns="http://www.w3.org/2000/svg" enable-background="new 0 0 91 91"><path d="M5.1 72c.9.5 2 .7 3.2.5 10.2-1.7 20.3-3.5 30.4-5.3.7 5.2 1.3 10.4 1.9 15.6.4 3.6 5.1 6.7 8 3.3C61 71.9 74.9 59.3 88.8 46.5c2.4-2.3 1.7-6.4-1-8.1C72.7 29.7 58.6 19.7 47 6.6c-3-3.3-8.1-.5-8.3 3.4-.3 6.2-.7 12.3-1 18.5-5.2-.4-10.5-.7-15.7-1.1-6-.4-13-1.9-18.7.3-1.6.6-2.1 2.8-.5 3.8 5.3 3.2 12.4 3 18.4 3.7 6.9.8 13.8 1.5 20.7 2.3 2.5.3 4.1-2.2 4.4-4.3.4-4 .8-8 1.2-12.1 8.8 8.6 18.8 16 29.3 22.6-9.7 8.9-19.2 18.2-28 28-.4-3.3-.8-6.6-1.1-10-.4-3.3-2.7-5.1-6-4.6l-30.6 5.1c-.6-5.6-2-11.1-2.8-16.7-.6-4.5-7-2.8-7.4 1-.8 7.1.2 13.9.8 21 0 2.5 1.6 4 3.4 4.5z" fill="#203c9b" class="fill-3b6a75"></path></svg>